<?xml version="1.0" encoding="UTF-8" standalone="no"?>
<!-- Created with Inkscape (http://www.inkscape.org/) -->

<svg
   xmlns:dc="http://purl.org/dc/elements/1.1/"
   xmlns:cc="http://creativecommons.org/ns#"
   xmlns:rdf="http://www.w3.org/1999/02/22-rdf-syntax-ns#"
   xmlns:svg="http://www.w3.org/2000/svg"
   xmlns="http://www.w3.org/2000/svg"
   xmlns:sodipodi="http://sodipodi.sourceforge.net/DTD/sodipodi-0.dtd"
   xmlns:inkscape="http://www.inkscape.org/namespaces/inkscape"
   width="283.96249"
   height="168.47456"
   id="svg3109"
   version="1.1"
   inkscape:version="0.48.4 r9939"
   sodipodi:docname="banani.pdf">
  <defs
     id="defs3111" />
  <sodipodi:namedview
     id="base"
     pagecolor="#ffffff"
     bordercolor="#666666"
     borderopacity="1.0"
     inkscape:pageopacity="0"
     inkscape:pageshadow="2"
     inkscape:zoom="2.4857728"
     inkscape:cx="7.8999059"
     inkscape:cy="127.00216"
     inkscape:document-units="px"
     inkscape:current-layer="layer1"
     showgrid="false"
     inkscape:window-width="1598"
     inkscape:window-height="884"
     inkscape:window-x="0"
     inkscape:window-y="0"
     inkscape:window-maximized="0"
     fit-margin-top="0"
     fit-margin-left="0"
     fit-margin-right="0"
     fit-margin-bottom="0"
     inkscape:showpageshadow="true"
     showborder="true" />
  <metadata
     id="metadata3114">
    <rdf:RDF>
      <cc:Work
         rdf:about="">
        <dc:format>image/svg+xml</dc:format>
        <dc:type
           rdf:resource="http://purl.org/dc/dcmitype/StillImage" />
        <dc:title></dc:title>
      </cc:Work>
    </rdf:RDF>
  </metadata>
  <g
     inkscape:label="Layer 1"
     inkscape:groupmode="layer"
     id="layer1"
     transform="translate(-1.1927947,-3.2474452)">
    <path
       style="fill:#000000"
       d="m 141.54251,170.14277 c -6.44388,-3.22826 -11.87778,-8.4267 -19.1658,-18.33529 -7.07106,-9.61364 -12.22143,-17.25319 -12.22143,-18.1281 0,-0.28548 -2.31413,-4.68263 -5.1425,-9.77144 -9.479048,-17.05469 -10.614968,-19.33837 -13.336408,-26.811891 -2.20959,-6.0679 -2.62104,-8.59345 -2.2304,-13.69048 0.41745,-5.44685 0.25628,-6.25 -1.254174,-6.25 -0.95325,0 -4.76062,-1.6875 -8.46082,-3.75 -6.68337,-3.72532 -6.75615,-3.81253 -11.05786,-13.25 -8.14868,-17.8773 -10.309268,-30.129121 -11.51784,-45.83652 -0.222226,-2.888202 -1.570144,-6.992691 0.803571,-8.6529827 1.179557,-0.8250395 2.797178,0.6863371 4.176019,1.0996684 1.028103,0.3081916 2.023096,0.7204485 3.051345,1.0281521 1.066086,0.3190263 2.164781,0.5223168 3.229143,0.847051 0.905354,0.2762213 1.744775,0.7969688 2.681133,0.9355211 1.692053,0.250372 3.43628,-0.4747313 5.126923,-0.2150072 1.379629,0.2119447 2.546756,1.3125003 3.938174,1.4231823 2.04367,0.162566 3.992073,-1.1791943 6.041985,-1.1495893 1.375833,0.01987 2.659148,0.9921023 4.031207,0.8883503 1.739304,-0.131522 3.276344,-2.5614296 4.882749,-1.8817691 2.754078,1.1652337 0.631844,0.9403639 3.513715,8.2545881 1.982528,10.406492 18.253248,37.10175 29.123018,47.65833 3.32277,3.22703 3.75594,4.30724 4.33718,10.81581 0.0825,0.92369 4.09897,3.08339 4.67082,2.51154 0.23962,-0.23963 -0.69452,-2.86359 -2.07588,-5.83102 -2.87521,-6.17654 -3.13508,-9.93202 -1.08862,-15.7323 2.29165,-6.49525 5.54311,-10.03062 12.27143,-13.34296 11.09145,-5.46031 24.68566,-4.94162 37.50557,1.43103 9.30565,4.62575 23.10451,18.80273 28.46877,29.24889 5.7786,11.25301 9.51937,22.34694 9.13208,27.082846 -0.31333,3.83155 -0.40279,3.91461 -4.09367,3.80102 -2.14662,-0.0661 -4.67791,-0.92828 -5.87159,-2 -2.95923,-2.65688 -9.06236,-11.848476 -12.3762,-18.639156 -7.723,-15.82585 -28.571,-33.74023 -41.24356,-35.43997 -5.43716,-0.72928 -11.41531,2.44746 -13.7114,7.28613 -2.25509,4.75224 -1.63937,12.03387 1.37559,16.26799 6.22247,8.73865 27.48363,21.01938 50.1005,28.938706 6.325,2.21471 15.1,5.37128 19.5,7.0146 4.4,1.64332 12.05,4.48225 17,6.30874 14.79279,5.45835 37.17577,18.3895 42.95561,24.81642 1.618,1.79913 1.74748,2.50783 0.75,4.10504 -0.66308,1.06177 -1.20561,4.1315 -1.20561,6.82162 0,6.04116 -1.54776,7.59062 -6.73623,6.74361 -2.07007,-0.33794 -8.48877,-1.0556 -14.26377,-1.5948 -23.56338,-2.20005 -49.47367,-7.33036 -62.83578,-12.44166 -5.13468,-1.96413 -9.77553,-3.57114 -10.31301,-3.57114 -0.53748,0 -3.89275,-1.40613 -7.45616,-3.12473 -6.40158,-3.08743 -8.79804,-3.2707 -6.4959,-0.49678 2.59029,3.12111 28.54837,13.48619 40.3907,16.12804 21.5355,4.80425 25.78364,5.70662 30.90985,6.56572 7.69424,1.28949 29.38258,1.63754 34.14861,0.54802 3.40012,-0.77728 3.80774,-0.6735 3.5,0.89109 -0.46969,2.38792 -6.50822,4.05321 -19.64713,5.41822 -5.88565,0.61147 -12.9543,1.34617 -15.70812,1.63268 -6.06375,0.63087 -24.89121,-1.04955 -34.78541,-3.10471 -9.49852,-1.97299 -33.59644,-9.58938 -46.52665,-14.70523 l -10.319,-4.08273 -2.80609,-5.58479 c -1.54335,-3.07164 -4.01785,-8.9598 -5.49891,-13.0848 -1.48105,-4.125 -5.60813,-13.68327 -9.17129,-21.2406 -4.34233,-9.209906 -6.97351,-16.299106 -7.9798,-21.499996 -1.59432,-8.24005 -1.17777,-14.02598 1.07194,-14.88928 1.67986,-0.64462 2.84686,-3.37012 1.44302,-3.37012 -0.559,0 -2.11988,1.19071 -3.46862,2.64602 -4.98211,5.37579 -2.31288,19.70687 7.6731,41.196756 2.21257,4.76147 5.6135,12.70722 7.55762,17.65722 4.67171,11.89479 11.42774,25.72906 15.79208,32.33728 1.93872,2.93551 3.52495,5.66382 3.52495,6.06291 0,1.42595 -5.54563,5.96803 -8,6.5523 -1.56153,0.37173 -4.04388,-0.17832 -6.61277,-1.46528 z m 136.13182,-13.48721 c -0.28548,-1.375 -0.75494,-3.63423 -1.04325,-5.02052 -0.60305,-2.89962 0.99093,-6.47948 2.88507,-6.47948 1.95777,0 5.63913,4.3606 5.63913,6.67959 0,2.52589 -3.6373,7.32041 -5.55353,7.32041 -0.7746,0 -1.64194,-1.125 -1.92742,-2.5 z M 2.405278,144.49328 c -3.46045,-1.39632 0.67823,-15.41907 9.96651,-33.76868 8.03286,-15.869451 13.17045,-23.771521 20.66214,-31.780151 6.9091,-7.38586 13.02211,-10.78888 19.38055,-10.78888 5.52689,0 17.45481,3.29363 25.84415,7.13628 l 6.60335,3.02461 1.54683,8.66955 c 0.85076,4.76826 1.32726,9.02798 1.05891,9.46604 -0.26836,0.43807 -2.39885,-0.91193 -4.73442,-3 -2.33557,-2.08806 -7.05559,-6.21588 -10.48893,-9.17293 -5.15693,-4.44153 -6.14156,-5.77835 -5.66235,-7.68768 0.54443,-2.16919 0.34941,-2.27872 -3.17333,-1.78215 -8.04484,1.13401 -9.84749,2.32027 -19.81591,13.04004 -14.48386,15.575551 -18.76327,22.127001 -24.81923,37.996301 -4.58012,12.00198 -7.20213,17.01685 -9.5558,18.27649 -2.01997,1.08106 -4.69233,1.22666 -6.81247,0.37116 z m 70.25,-2.22445 c -7.57339,-3.48906 -18.74867,-16.72319 -22.39081,-26.5159 -2.69809,-7.2544 -3.7658,-19.549861 -2.19802,-25.311681 1.2571,-4.62004 6.97055,-10.78819 10.90838,-11.77652 1.86271,-0.46752 3.38834,0.335 7.02974,3.69779 2.55789,2.3622 6.42305,5.69491 8.58925,7.40603 l 3.93854,3.11113 -1.63636,4.38794 c -3.04472,8.164481 -2.19541,12.926001 5.00863,28.080051 3.71362,7.81176 6.24984,14.36762 5.90548,15.265 -1.4108,3.6765 -8.97515,4.50315 -15.15483,1.65616 z"
       inkscape:connector-curvature="0"
       sodipodi:nodetypes="cssssssssaaaaaaaaaaacsccsssssscssssssssssssssssssssssssscssssssssssssccssssssssssscsssssssssssssssscssss" />
  </g>
</svg>
